<?xml version="1.0" encoding="UTF-8"?>
<svg viewBox="0 0 800 1200" xmlns="http://www.w3.org/2000/svg" xmlns:xlink="http://www.w3.org/1999/xlink">
 <defs>
  <filter id="by">
   <feGaussianBlur stdDeviation=".7868"/>
  </filter>
  <filter id="bx">
   <feGaussianBlur stdDeviation=".4566"/>
  </filter>
  <filter id="bu">
   <feGaussianBlur stdDeviation=".2347"/>
  </filter>
  <filter id="o">
   <feGaussianBlur stdDeviation="1.277"/>
  </filter>
  <filter id="bt">
   <feGaussianBlur stdDeviation=".4192"/>
  </filter>
  <filter id="br">
   <feGaussianBlur stdDeviation="4.0056"/>
  </filter>
  <filter id="bq">
   <feGaussianBlur stdDeviation="2.1153"/>
  </filter>
  <filter id="bp">
   <feGaussianBlur stdDeviation=".3451"/>
  </filter>
  <filter id="m">
   <feGaussianBlur stdDeviation="1.1681"/>
  </filter>
  <filter id="bs"/>
  <filter id="ca" x="-.22178" y="-.18886" width="1.4436" height="1.3777">
   <feGaussianBlur stdDeviation="5.0874"/>
  </filter>
  <filter id="bz" x="-.30006" y="-.25552" width="1.6001" height="1.511">
   <feGaussianBlur stdDeviation="6.8829"/>
  </filter>
  <filter id="bw" x="-.03405" y="-.25207" width="1.0681" height="1.5041">
   <feGaussianBlur stdDeviation="1.5506"/>
  </filter>
  <filter id="bv" x="-.07381" y="-.32065" width="1.1476" height="1.6413">
   <feGaussianBlur stdDeviation="2.1436"/>
  </filter>
  <filter id="n" x="-.10469" y="-.11152" width="1.2094" height="1.223">
   <feGaussianBlur stdDeviation=".7634"/>
  </filter>
  <linearGradient id="e">
   <stop stop-color="#500" offset="0"/>
   <stop stop-color="#500" stop-opacity="0" offset="1"/>
  </linearGradient>
  <linearGradient id="a">
   <stop stop-color="#fff" offset="0"/>
   <stop stop-color="#fff" stop-opacity="0" offset="1"/>
  </linearGradient>
  <linearGradient id="j">
   <stop offset="0"/>
   <stop stop-color="#fff" offset=".0799"/>
   <stop stop-color="#999" offset=".3304"/>
   <stop stop-color="#fff" offset=".4642"/>
   <stop stop-color="#fff" offset=".6289"/>
   <stop stop-color="#b6b6b6" offset=".7308"/>
   <stop stop-color="#ccc" offset=".8446"/>
   <stop stop-color="#ccc" offset=".9382"/>
   <stop offset="1"/>
  </linearGradient>
  <linearGradient id="c">
   <stop offset="0"/>
   <stop stop-color="#fff" offset=".0805"/>
   <stop stop-color="#999" offset=".3304"/>
   <stop stop-color="#fff" offset=".388"/>
   <stop stop-color="#fff" offset=".6866"/>
   <stop stop-color="#666" offset=".8078"/>
   <stop stop-color="#ccc" offset=".8446"/>
   <stop stop-color="#ccc" offset=".9382"/>
   <stop offset="1"/>
  </linearGradient>
  <linearGradient id="k">
   <stop stop-color="#2b0000" offset="0"/>
   <stop stop-color="#2b0000" stop-opacity="0" offset="1"/>
  </linearGradient>
  <linearGradient id="f">
   <stop offset="0"/>
   <stop stop-color="#fff" offset=".1594"/>
   <stop stop-color="#999" offset=".3304"/>
   <stop stop-color="#fff" offset=".6065"/>
   <stop stop-color="#fff" offset=".6866"/>
   <stop stop-color="#b6b6b6" offset=".8078"/>
   <stop stop-color="#ccc" offset=".8446"/>
   <stop stop-color="#ccc" offset=".9382"/>
   <stop offset="1"/>
  </linearGradient>
  <linearGradient id="b">
   <stop stop-color="#666" offset="0"/>
   <stop stop-color="#fff" offset="1"/>
  </linearGradient>
  <linearGradient id="g">
   <stop stop-color="#4d4d4d" offset="0"/>
   <stop stop-color="#fff" offset=".1594"/>
   <stop stop-color="#999" offset=".3304"/>
   <stop stop-color="#fff" offset=".6065"/>
   <stop stop-color="#fff" offset=".6866"/>
   <stop stop-color="#b6b6b6" offset=".8078"/>
   <stop stop-color="#ccc" offset=".8446"/>
   <stop stop-color="#ccc" offset=".9382"/>
   <stop offset="1"/>
  </linearGradient>
  <linearGradient id="d">
   <stop stop-color="#fff" offset="0"/>
   <stop offset="1"/>
  </linearGradient>
  <linearGradient id="bo" x1="426.99" x2="496.69" gradientUnits="userSpaceOnUse">
   <stop stop-color="#500" offset="0"/>
   <stop stop-color="#ff2a2a" offset=".2754"/>
   <stop stop-color="#500" offset="1"/>
  </linearGradient>
  <linearGradient id="l" x1="524.81" x2="696.54" y1="9.0729" y2="2.0347" gradientUnits="userSpaceOnUse">
   <stop stop-color="#fff" offset="0"/>
   <stop stop-color="#fff" offset="1"/>
  </linearGradient>
  <linearGradient id="bn" x1="441.13" x2="468.41" y1="176.39" y2="176.41" gradientUnits="userSpaceOnUse">
   <stop stop-color="#fff" stop-opacity=".0202" offset="0"/>
   <stop stop-color="#fff" offset=".4445"/>
   <stop stop-color="#fff" stop-opacity=".004" offset="1"/>
  </linearGradient>
  <linearGradient id="bm" x1="289.87" x2="668.71" y1="340.49" y2="357.66" gradientUnits="userSpaceOnUse">
   <stop stop-color="#4d4d4d" offset="0"/>
   <stop stop-color="#fff" offset=".0169"/>
   <stop stop-color="#999" offset=".3304"/>
   <stop stop-color="#fff" offset=".6065"/>
   <stop stop-color="#fff" offset=".8149"/>
   <stop stop-color="#b6b6b6" offset=".8361"/>
   <stop stop-color="#ccc" offset=".8945"/>
   <stop stop-color="#ccc" offset=".9667"/>
   <stop stop-color="#808080" offset="1"/>
  </linearGradient>
  <linearGradient id="bl" x2="0" y1="209.25" y2="233.61" gradientUnits="userSpaceOnUse">
   <stop stop-color="#ff2a2a" offset="0"/>
   <stop stop-color="#a00" offset="1"/>
  </linearGradient>
  <linearGradient id="bk" x1="281.28" x2="297.69" y1="228.3" y2="228.81" gradientUnits="userSpaceOnUse">
   <stop offset="0"/>
   <stop stop-opacity="0" offset="1"/>
  </linearGradient>
  <linearGradient id="bc" x1="645" x2="645.26" y1="440.04" y2="409.68" gradientUnits="userSpaceOnUse">
   <stop offset="0"/>
   <stop stop-color="#fff" offset=".1691"/>
   <stop stop-color="#999" offset=".3377"/>
   <stop stop-color="#fff" offset=".489"/>
   <stop stop-color="#fff" offset=".6162"/>
   <stop stop-color="#b6b6b6" offset=".8078"/>
   <stop stop-color="#ccc" offset=".8446"/>
   <stop stop-color="#ccc" offset=".9325"/>
   <stop offset="1"/>
  </linearGradient>
  <linearGradient id="bb" x1="685.57" x2="684.68" y1="463.75" y2="423.22" gradientUnits="userSpaceOnUse">
   <stop offset="0"/>
   <stop stop-color="#fff" offset=".1009"/>
   <stop stop-color="#fff" offset=".304"/>
   <stop stop-color="#b3b3b3" offset=".3862"/>
   <stop stop-color="#fff" offset=".6866"/>
   <stop stop-color="#b6b6b6" offset=".8078"/>
   <stop stop-color="#ccc" offset=".8446"/>
   <stop stop-color="#ccc" offset=".9382"/>
   <stop offset="1"/>
  </linearGradient>
  <linearGradient id="ba" x1="300.11" x2="519.59" y1="593.51" y2="588.51" gradientUnits="userSpaceOnUse">
   <stop stop-color="#a00" offset="0"/>
   <stop stop-color="#f00" offset=".0991"/>
   <stop stop-color="#800000" offset="1"/>
  </linearGradient>
  <linearGradient id="az" x1="515.85" x2="564.46" y1="610.01" y2="609.88" gradientUnits="userSpaceOnUse">
   <stop stop-color="#2b0000" offset="0"/>
   <stop stop-color="#f00" offset=".6372"/>
   <stop stop-color="#280b0b" offset="1"/>
  </linearGradient>
  <linearGradient id="ay" x2="0" y1="298.19" y2="937.12" gradientUnits="userSpaceOnUse">
   <stop stop-color="#faa" offset="0"/>
   <stop stop-color="#fff" stop-opacity="0" offset="1"/>
  </linearGradient>
  <linearGradient id="ax" x1="604.11" x2="587.95" y1="261.85" y2="870.43" gradientUnits="userSpaceOnUse">
   <stop stop-color="#500" offset="0"/>
   <stop stop-color="#ff2a2a" offset="1"/>
  </linearGradient>
  <linearGradient id="av" x1="324.32" x2="455.32" y1="427.04" y2="448.47" gradientUnits="userSpaceOnUse">
   <stop stop-color="#ccc" offset="0"/>
   <stop stop-color="#fff" offset="1"/>
  </linearGradient>
  <linearGradient id="as" x1="285.39" x2="320.67" y1="562.38" y2="560.95" gradientUnits="userSpaceOnUse">
   <stop stop-color="#2b0000" offset="0"/>
   <stop stop-color="#ff2a2a" offset="1"/>
  </linearGradient>
  <linearGradient id="ab" x1="440.43" x2="411.87" y1="487.95" y2="443.89" gradientUnits="userSpaceOnUse">
   <stop stop-color="#7e1919" offset="0"/>
   <stop stop-color="#7e1919" stop-opacity="0" offset="1"/>
  </linearGradient>
  <linearGradient id="bj" x1="348.7" x2="369.98" y1="548.9" y2="548.14" gradientUnits="userSpaceOnUse" xlink:href="#d"/>
  <linearGradient id="bi" x1="370.93" x2="395.17" y1="557.99" y2="556.98" gradientUnits="userSpaceOnUse" xlink:href="#d"/>
  <linearGradient id="bh" x1="395.93" x2="420.29" gradientUnits="userSpaceOnUse" xlink:href="#d"/>
  <linearGradient id="bg" x1="419.29" x2="443.65" gradientUnits="userSpaceOnUse" xlink:href="#d"/>
  <linearGradient id="bf" x1="334.32" x2="453.53" y1="304.18" y2="522.76" gradientUnits="userSpaceOnUse" xlink:href="#g"/>
  <linearGradient id="be" x1="471.1" x2="321.03" y1="559.76" y2="303.68" gradientUnits="userSpaceOnUse" xlink:href="#g"/>
  <linearGradient id="bd" x1="639.58" x2="656.72" y1="445.79" y2="435.79" gradientUnits="userSpaceOnUse" xlink:href="#g"/>
  <linearGradient id="aw" x1="425.65" x2="426.56" y1="388.13" y2="1006" gradientTransform="matrix(.74057 0 0 .87297 73.458 -52.486)" gradientUnits="userSpaceOnUse" xlink:href="#a"/>
  <linearGradient id="au" x1="330.39" x2="466.03" y1="528.05" y2="315.2" gradientUnits="userSpaceOnUse" xlink:href="#f"/>
  <linearGradient id="at" x1="410.17" x2="409.46" y1="280.24" y2="288.1" gradientUnits="userSpaceOnUse" xlink:href="#k"/>
  <linearGradient id="ar" x1="307.29" x2="625.97" y1="219.81" y2="212.31" gradientUnits="userSpaceOnUse" xlink:href="#a"/>
  <linearGradient id="aq" x1="418.22" x2="602.56" gradientUnits="userSpaceOnUse" xlink:href="#a"/>
  <linearGradient id="ap" x1="368.28" x2="506.03" gradientUnits="userSpaceOnUse" xlink:href="#a"/>
  <linearGradient id="ao" x1="609.77" x2="615.38" y1="266.24" y2="275.33" gradientUnits="userSpaceOnUse" xlink:href="#k"/>
  <linearGradient id="an" x1="340.74" x2="349.96" gradientUnits="userSpaceOnUse" xlink:href="#b"/>
  <linearGradient id="am" x1="364.49" x2="373.71" gradientUnits="userSpaceOnUse" xlink:href="#b"/>
  <linearGradient id="al" x1="388.24" x2="397.46" gradientUnits="userSpaceOnUse" xlink:href="#b"/>
  <linearGradient id="ak" x1="411.46" x2="420.67" gradientUnits="userSpaceOnUse" xlink:href="#b"/>
  <linearGradient id="aj" x1="325.95" x2="474.46" y1="593.86" y2="688.5" gradientUnits="userSpaceOnUse" xlink:href="#j"/>
  <linearGradient id="ai" x1="334.78" x2="469.54" y1="603.72" y2="678.72" gradientUnits="userSpaceOnUse" xlink:href="#c"/>
  <linearGradient id="ah" x1="330.06" x2="484.53" gradientUnits="userSpaceOnUse" xlink:href="#c"/>
  <linearGradient id="ag" x1="345.23" x2="469.54" gradientUnits="userSpaceOnUse" xlink:href="#c"/>
  <linearGradient id="i" x1="352.93" x2="476.06" gradientUnits="userSpaceOnUse" xlink:href="#c"/>
  <linearGradient id="af" x1="326.27" x2="477.5" gradientUnits="userSpaceOnUse" xlink:href="#j"/>
  <linearGradient id="ae" x1="555.79" x2="537.6" gradientUnits="userSpaceOnUse" xlink:href="#a"/>
  <linearGradient id="ad" x1="645.78" x2="634.83" y1="559.47" y2="523.91" gradientUnits="userSpaceOnUse" xlink:href="#e"/>
  <linearGradient id="ac" x1="622.14" x2="657.86" gradientUnits="userSpaceOnUse" xlink:href="#a"/>
  <linearGradient id="aa" x1="386.61" x2="385.55" y1="551.73" y2="557.03" gradientUnits="userSpaceOnUse" xlink:href="#e"/>
  <linearGradient id="z" x1="402.34" x2="400.75" y1="669.82" y2="694.21" gradientUnits="userSpaceOnUse" xlink:href="#e"/>
  <radialGradient id="y" cx="491.91" cy="162.38" r="103.25" gradientTransform="matrix(.98581 -2.0818e-8 2.4981e-8 1.183 -40.64 -149.82)" gradientUnits="userSpaceOnUse">
   <stop stop-color="#f00" offset="0"/>
   <stop stop-color="#a00" offset=".7147"/>
   <stop stop-color="#500" offset="1"/>
  </radialGradient>
  <radialGradient id="x" cx="456.81" cy="150.25" r="73.588" gradientTransform="matrix(1 0 0 1.2115 -16.971 -139.26)" gradientUnits="userSpaceOnUse">
   <stop stop-color="#9a0000" offset="0"/>
   <stop stop-color="#7a0000" offset="1"/>
  </radialGradient>
  <radialGradient id="v" cx="446.29" cy="280.4" r="181.19" gradientTransform="matrix(1.2258 .00279 -.00058848 .25878 -115.73 128.13)" gradientUnits="userSpaceOnUse">
   <stop stop-color="#f00" offset="0"/>
   <stop stop-color="#500" offset=".8076"/>
   <stop stop-color="#2b0000" offset="1"/>
  </radialGradient>
  <radialGradient id="u" cx="383.44" cy="496.44" r="32.072" gradientTransform="matrix(2.1915 .56791 -.15604 .60216 -394.18 -118.79)" gradientUnits="userSpaceOnUse">
   <stop stop-color="#e6e6e6" offset="0"/>
   <stop stop-color="#999" offset="1"/>
  </radialGradient>
  <radialGradient id="t" cx="385.93" cy="559.01" r="32.072" gradientTransform="matrix(1.9131 .71267 -.21715 .58291 -247.98 -144.16)" gradientUnits="userSpaceOnUse">
   <stop stop-color="#e6e6e6" offset="0"/>
   <stop stop-color="#b3b3b3" offset="1"/>
  </radialGradient>
  <radialGradient id="r" cx="640.5" cy="528.78" r="20.687" gradientTransform="matrix(.97602 -.01659 .02912 1.8457 -.04208 -436.86)" gradientUnits="userSpaceOnUse">
   <stop stop-color="#4d4d4d" offset="0"/>
   <stop stop-color="#fff" offset=".1594"/>
   <stop stop-color="#999" offset=".3304"/>
   <stop stop-color="#fff" offset=".6065"/>
   <stop stop-color="#fff" offset=".6866"/>
   <stop stop-color="#b6b6b6" offset=".8078"/>
   <stop stop-color="#ccc" offset=".8446"/>
   <stop stop-color="#ccc" offset=".9509"/>
   <stop offset="1"/>
  </radialGradient>
  <radialGradient id="w" cx="428.74" cy="139.93" r="81.583" gradientTransform="matrix(.96498 1.1032 -.902 .78901 124.26 -552.88)" gradientUnits="userSpaceOnUse" xlink:href="#b"/>
  <radialGradient id="s" cx="625.79" cy="529.26" r="17.857" gradientTransform="matrix(2.0813 -.0551 .04349 1.7701 -695.75 -373.2)" gradientUnits="userSpaceOnUse" xlink:href="#b"/>
  <radialGradient id="q" cx="405.17" cy="441.42" r="21.56" gradientUnits="userSpaceOnUse" xlink:href="#f"/>
  <radialGradient id="p" cx="405.17" cy="441.42" r="21.523" gradientUnits="userSpaceOnUse" xlink:href="#f"/>
  <radialGradient id="h" cx="426.21" cy="465.64" r="25.542" gradientUnits="userSpaceOnUse" xlink:href="#c"/>
 </defs>
 <g transform="translate(0 147.64)">
  <path d="m316.34 403.08c-6.5382 0.45242-12.615 7.9342-17.469 24.875-8.2401 28.759 4.0731 87.459-12.646 110.95-19.544 27.456-59.124 44.445-99.403 72.132-186.34 106.86-141.35 181.1-132.06 201 11.544 24.749 80.977 47.699 161.36-2.0117 71.236-44.053 145.22-184.13 145.22-210.63 24.254-54.426-15.152-198.38-45-196.31zm0.59375 9.3438c0.0539 1e-3 0.059 0.0312 0.0625 0.0312 0.0176 4.1e-4 1.931 0.43823 4.8438 3.5s6.4346 8.237 9.875 14.844c6.8807 13.214 13.574 32.158 18.594 52.719 10.04 41.121 12.479 89.599 2.4688 112.06-0.53279 1.1956-0.81155 2.5036-0.8125 3.8125 0 0.95089-0.8548 5.5319-3 11.312s-5.4031 13.079-9.5938 21.312c-8.3814 16.468-20.441 36.741-34.688 57.531-28.494 41.581-61.668 91.88-95.017 112.5-38.842 24.02-77.754 25.017-102.67 23.903s-35.963-11.002-41.344-18.437c-8.2918-11.458-12.29-26.546-9.4461-53.702 3.3378-31.873 41.854-80.652 134.26-133.65 0.2242-0.12634 1.4534-1.2721 1.6664-1.4164 40.861-28.087 79.877-44.303 100.23-72.898 11.614-16.316 11.927-27.888 12.224-53.024s0.087-51.024 3.3125-62.281c2.3385-8.1615 4.9635-13.471 6.9062-16 1.4571-1.8967 1.9632-2.1289 2.125-2.125z" fill-rule="evenodd" stroke="#000"/>
  <path d="m285.07 261.01 23.234 575.79c6.3601 8.1561 16.43 15.57 10.102 26.264l199 69.701c7.9152-8.7531 19.473-15.078 43.437-13.132l-0.69687 0.6374 8.2335-634.58-286.34-27.705" fill="url(#ba)"/>
  <path d="m306.01 278.85 8.3281 492.99c4.7101 7.12 12.167 13.592 7.4809 22.928l147.37 60.847c5.8618-7.6412 14.421-13.162 32.168-11.464l-0.51607 0.55643 6.9903-547.01-201.82-18.845z" fill="url(#aw)" filter="url(#br)" opacity=".8314"/>
  <path d="m295.67 234.74 210.11 23.739c19.458 1.4956 40.444 2.0411 58.589-3.0305l78.792-38.891c-1.9229-2.3048-3.0947-4.7997-10.535-5.0941-112.87-52.952-224.65-73.372-332.41 9.1347-14.517 3.5321-32.99 6.7045-4.5457 14.142" fill="url(#v)"/>
  <path d="m464.31 172.71c-54.003-1.3721-106.88 13.53-159.53 53.844-0.82062 0.6341-1.7745 1.095-2.7812 1.3438-0.0232 6e-3 -0.0393 0.0256-0.0625 0.0312 60.168-29.35 125.29-35.651 204.41 23.094l0.28125 0.0312c18.92 1.4429 38.85 1.7519 55.25-2.7188l64.094-31.656c-54.726-25.345-108.77-42.625-161.66-43.969z" fill="url(#ar)"/>
  <path transform="matrix(1.4327 0 0 .86362 -235.84 -73.894)" d="m544.47 324.04a51.518 32.325 0 1 1 -103.04 0 51.518 32.325 0 1 1 103.04 0z" fill="#500" fill-rule="evenodd" filter="url(#bt)"/>
  <path d="m427.5 155.45-0.50508 26.264c24.415 9.5946 46.492 5.2859 69.701 0.50508l-1.0102-28.284-68.185 1.5152" fill="url(#bo)"/>
  <path d="m577.32 40.239c2.5254 65.115-59.116 125.09-115.38 124.15-72.928-1.2102-110.33-60.048-110.33-124.15s44.469-119.62 109.32-120.11c64.35-0.48541 118.41 38.835 116.39 120.11z" fill="url(#y)" fill-rule="evenodd"/>
  <path d="m523.29 40.677c1.8249 61.134-38.601 101.06-82.863 99.322-52.666-2.0489-80.243-49.082-80.243-99.322s32.134-95.772 78.998-96.156c46.5-0.38043 85.053 38.517 84.108 96.156z" fill="url(#w)" fill-rule="evenodd" stroke="#000"/>
  <path transform="matrix(1.105 0 0 1.1246 -107.01 -143.55)" d="m507.22 64.844c-53.216 0.3903-89 43.974-89 95.719 0 26.29 7.9236 51.118 22.875 69.125s36.669 29.727 67.156 30.219c21.845 0.35248 46.434-11.219 64.875-29.875s30.382-43.794 29.375-69.031a11.06 11.06 0 0 1 0 -0.71875c0.85828-33.573-9.8102-56.7-26.844-72.188s-41.223-23.45-68.438-23.25z" fill="url(#aq)" fill-rule="evenodd"/>
  <path d="m513.19 40.677c3.3062 44.971-29.263 91.27-72.738 91.241-42.597-0.0286-74.206-40.496-74.206-90.736 0-44.685 33.054-87.568 70.965-87.569 35.032-0.0016 76.907 29.426 75.98 87.064z" fill="url(#x)" fill-rule="evenodd" stroke="#fff"/>
  <path d="m505.35 37.863c3.0736 40.197-27.204 81.581-67.619 81.555-39.599-0.0256-68.984-36.197-68.984-81.104 0-39.941 30.728-78.272 65.971-78.273 32.567-0.0015 71.495 26.302 70.633 77.822z" fill="url(#ap)" fill-rule="evenodd"/>
  <text transform="matrix(.72832 .05954 -.10902 1.3641 0 0)" x="508.90155" y="35.95787" fill="url(#l)" font-family="ori1Uni" font-size="81.945" font-weight="bold">
   <tspan x="508.90155" y="35.95787" fill="url(#l)">GAS</tspan>
  </text>
  <path d="m297.69 234.49c62.203-43.039 151.68-26.83 207.33 23.234-69.111-4.7382-138.22-15.48-207.33-23.234z" fill="url(#bl)"/>
  <path d="m643.67 241.82-76.598 44.865-7.2444 635.21 60.609-96.21 23.234-583.87" fill="url(#ax)"/>
  <path d="m636.53 259.98-59.455 38.569-7.2444 597.63 47.752-72.262 18.948-563.93" fill="url(#ay)"/>
  <path transform="matrix(1.2391 0 0 1.349 -178.08 -280.26)" d="m657.86 529.15a17.857 35.186 0 1 1 -35.714 0 17.857 35.186 0 1 1 35.714 0z" fill="url(#ad)" fill-rule="evenodd"/>
  <path transform="matrix(.92444 0 0 .87174 24.456 -35.66)" d="m657.86 529.15a17.857 35.186 0 1 1 -7.3e-4 -0.31959l-17.856 0.31959z" fill="url(#ac)" fill-rule="evenodd"/>
  <path transform="matrix(1.08 0 0 1.0404 -74.599 -125.29)" d="m657.86 529.15a17.857 35.186 0 1 1 -7.3e-4 -0.31959l-17.856 0.31959z" fill="url(#s)" fill-rule="evenodd" stroke="url(#r)" stroke-width="5.6603"/>
  <path d="m664.32 448.58 40.714 0.53572c3.799-1.3357 5.826-2.9053 10.536-1.9643 9.4496-0.10329 10.901 16.894 0 17.857-3.4396 0.52018-6.8793-0.0903-10.319-2.4244l-49.86 1.8888 8.9286-15.536 0.17857 1.6071" fill="url(#bb)"/>
  <path d="m650.65 426.69 14.643 22.857-9.6429 15.357-16.071-28.571 11.071-9.6429" fill="url(#bd)"/>
  <path transform="matrix(1.3216 0 0 1.1334 -211.99 -178.64)" d="m624.29 524.86c-4.4929 3.8341-3.5936 17.214 0.53571 20.179-1.5321-6.4554-1.3744-13.249-0.53571-20.179" filter="url(#bs)" stroke="#000" stroke-width=".81704"/>
  <path transform="matrix(.89312 -.13873 0 .73121 61.618 143.05)" d="m666.96 528.08a8.75 8.2143 0 1 1 -17.5 0 8.75 8.2143 0 1 1 17.5 0z" fill="#483737" fill-rule="evenodd" filter="url(#bp)"/>
  <path d="m644.84194,409.08227c-4.95179.14918-10.72815,2.71557-17.3125,8.96875h-14.3125l-.6875-.34375c-1.91217,7.08703-1.55,13.00342.34375,18.1875l15.71875.25c2.35576.66368 4.94623,1.64113 7.65625,2.5 2.58308,1.86238 5.72529,2.96875 9.125,2.96875 3.47102,0 6.66842-1.15953 9.28125-3.09375 .85814-.51794 1.68634-1.1546 2.5-1.90625 .50915-.65138.96512-1.3828 1.375-2.1875 .0127-.0192.0187-.0433.0312-.0625 1.68885-2.58239 2.6875-5.69033 2.6875-9.03125 0-1.80145-.31508-3.50555-.84375-5.125-.20893-.88502-.47369-1.71493-.84375-2.40625-.2152-.32348-.45978-.62515-.6875-.9375-2.20417-3.66255-5.77774-6.3662-10-7.34375-.21883-.0507-.4341-.11494-.65625-.15625-.32433-.0661-.63558-.11216-.96875-.15625l-.25-.0312c-.0512-.005-.10496.005-.15625,0-.4751-.049-.97623-.0915-1.46875-.0937-.17467-.00078-.3544-.005-.53125,0z" fill="url(#bc)"/>
  <path d="m335.88 538.83 122.33 28.461 0.88388 3.0052-124.27-27.754 1.0607-3.7123" fill="url(#aa)" filter="url(#m)"/>
  <path d="m335.89 292.6 125.71 14.286c10.289 0 12.143 11.79 12.143 21.999l-2.1429 227.43c0 10.209-6.14 11.284-16.429 9.1416l-117.14-27.143c-9.5743-2.8571-13.571-7.5043-13.571-17.713l-5-209.57c0-10.209 6.14-18.427 16.429-18.427z" fill="url(#au)" fill-rule="evenodd" stroke="url(#be)" stroke-width="2"/>
  <path transform="matrix(1 0 0 1.3338 -16.971 -327.94)" d="m358.86 663.94 100.41 13.219 31.997 32.826-119.32-16.488-13.612-28.629" fill="url(#z)" filter="url(#m)"/>
  <path d="m349.21 530.34 0.2742 39.879 23.086-9.701-0.25254-25.254-23.107-4.9245" fill="url(#bj)"/>
  <path d="m373.21 574.52-8.2143-8.5714v-33.214l8.2143 2.1428 0.35714 39.821" fill="url(#am)"/>
  <path d="m349.46 569.88-8.2143-8.5714v-33.214l8.2143 2.1428 0.35714 39.821" fill="url(#an)"/>
  <path d="m372.82 535.14 0.63134 39.522 22.728-9.3439-0.25254-24.749-23.234-5.177" fill="url(#bi)"/>
  <path d="m396.96 580.42-8.2143-8.5714v-33.214l8.2143 2.1428 0.35714 39.821" fill="url(#al)"/>
  <path d="m396.43 540.95 0.63134 39.522 22.728-9.3439-0.37881-24.622-22.981-5.5558" fill="url(#bh)"/>
  <path d="m420.17 586.13-8.2143-8.5714v-33.214l8.2143 2.1428 0.35714 39.821" fill="url(#ak)"/>
  <path d="m419.79 546.63 0.63134 39.522 22.728-9.3439-0.37881-24.622-22.981-5.5558" fill="url(#bg)"/>
  <path d="m341.77 303.19 110.58 12.967c9.0501 0 10.681 10.701 10.681 19.967l-1.8849 206.43c0 9.2661-5.4009 8.2975-14.451 8.2975l-103.04-24.637c-8.4218-2.5933-11.938-6.8114-11.938-16.077l-4.3981-190.22c0-9.2661 5.4009-16.726 14.451-16.726z" fill="url(#av)" fill-rule="evenodd" stroke="url(#bf)" stroke-width="3"/>
  <path d="m365.88 390.81 64.145 6.566v33.335l-64.145-7.5762v-32.325" fill="url(#u)" stroke="#fff" stroke-width="2"/>
  <path d="m371.94 398.39 13.132 1.6399-0.50508 19.068-12.374-1.6591-0.25254-19.049" stroke="#000"/>
  <path d="m389.87 400.41 13.132 1.6399-0.50508 19.068-12.374-1.6591-0.25254-19.049" stroke="#000"/>
  <path d="m408.81 402.43 13.132 1.6399-0.50508 19.068-12.374-1.6591-0.25254-19.049" stroke="#000"/>
  <text x="371.93817" y="415.30945" fill="#fff" font-family="ori1Uni" font-size="18" font-weight="bold">
   <tspan x="371.93817" y="415.30945">0</tspan>
  </text>
  <text x="390.12091" y="417.32977" fill="#fff" font-family="ori1Uni" font-size="18" font-weight="bold">
   <tspan x="390.12091" y="417.32977">3</tspan>
  </text>
  <text x="409.31381" y="419.60254" fill="#fff" font-family="ori1Uni" font-size="18" font-weight="bold">
   <tspan x="409.31381" y="419.60254">9</tspan>
  </text>
  <path d="m366.89 445.36 64.145 6.566v33.335l-64.145-7.5762v-32.325" fill="url(#t)" stroke="#fff" stroke-width="2"/>
  <path d="m372.95 452.94 13.132 1.6399-0.50508 19.068-12.374-1.6591-0.25254-19.049" stroke="#000"/>
  <path d="m390.88 454.96 13.132 1.6399-0.50508 19.068-12.374-1.6591-0.25254-19.049" stroke="#000"/>
  <path d="m409.82 457.99 13.132 1.6399-0.50508 19.068-12.374-1.6591-0.25254-19.049" stroke="#000"/>
  <text transform="rotate(6.243)" x="421.06818" y="425.88129" fill="#fff" font-family="ori1Uni" font-size="18" font-weight="bold">
   <tspan x="421.06818" y="425.88129">2</tspan>
  </text>
  <text transform="rotate(3.845)" x="421.44815" y="444.17755" fill="#fff" font-family="ori1Uni" font-size="18" font-weight="bold">
   <tspan x="421.44815" y="444.17755">5</tspan>
  </text>
  <text transform="rotate(6.1456)" x="458.31766" y="427.54987" fill="#fff" font-family="ori1Uni" font-size="18" font-weight="bold">
   <tspan x="458.31766" y="427.54987">1</tspan>
  </text>
  <path d="m374.72 492.84 11.112 1.2627v15.152l-10.859-1.2627-0.25254-15.152" fill="#1a1a1a" stroke="#000"/>
  <path d="m393.15 495.62 11.112 1.2627v15.152l-10.859-1.2627-0.25254-15.152" fill="#1a1a1a" stroke="#000"/>
  <path d="m412.34 498.65 11.112 1.2627v15.152l-10.859-1.2627-0.25254-15.152" fill="#1a1a1a" stroke="#000"/>
  <path d="m335.46 595.37 128.52 31.315c7.3119 2.1429 13.521 6.4164 13.521 14.387l-0.50508 31.331c0 7.9702-1.959 16.024-9.9851 13.882l-126.5-32.83c-13.562-5-14.235-9.4469-14.235-17.417l0.20921-31.331c0-7.9702 1.4845-9.3359 8.975-9.3359z" fill="url(#aj)" fill-rule="evenodd" stroke="url(#af)" stroke-width="2"/>
  <path d="m339.37 602.95 120 28.116c7.4694 2.0203 11.561 6.3572 11.561 12.999l0.0355 29.139c0 6.6418-3.0338 6.757-9.2838 5.507l-121.15-30.894c-6.4593-3.5355-9.0355-4.3369-9.0355-10.979l-0.4696-26.109c0-6.6418 1.3803-7.7799 8.3446-7.7799z" fill="#fff2f2" fill-rule="evenodd" stroke="url(#ai)" stroke-width="3"/>
  <text transform="rotate(12.106)" x="464.30954" y="550.84235" font-family="URW Gothic L" font-size="28" font-weight="bold">
   <tspan x="464.30954" y="550.84235">R</tspan>
  </text>
  <text transform="rotate(12.725)" x="488.95944" y="546.78784" font-family="URW Gothic L" font-size="28" font-weight="bold">
   <tspan x="488.95944" y="546.78784">E</tspan>
  </text>
  <text transform="matrix(.8132 .14274 -.21582 1.1918 0 0)" x="586.14819" y="471.45724" font-family="URW Gothic L" font-size="23.117" font-weight="bold">
   <tspan x="586.14819" y="471.45724">G</tspan>
  </text>
  <text transform="matrix(.95899 .17413 -.184 1.0094 0 0)" x="516.71252" y="555.28534" font-family="URW Gothic L" font-size="27.291" font-weight="bold">
   <tspan x="516.71252" y="555.28534">U</tspan>
  </text>
  <text transform="matrix(.9567 .18633 -.19685 1.0069 0 0)" x="544.66425" y="549.77496" font-family="URW Gothic L" font-size="27.291" font-weight="bold">
   <tspan x="544.66425" y="549.77496">L</tspan>
  </text>
  <text transform="matrix(.87728 .14142 -.18272 1.1104 0 0)" x="597.2345" y="517.53735" font-family="URW Gothic L" font-size="24.881" font-weight="bold">
   <tspan x="597.2345" y="517.53735">A</tspan>
  </text>
  <text transform="matrix(.86088 .22025 -.2825 1.0893 0 0)" x="676.73163" y="472.172" font-family="URW Gothic L" font-size="24.881" font-weight="bold">
   <tspan x="676.73163" y="472.172">R</tspan>
  </text>
  <path d="m336.72 672.39c-4.9355 0.14303-6.0103 1.6601-6.1562 7.25l4.8438 154.94c-0.16684 6.3884 3.4134 12.773 9.7812 16.375l127.41 43.094c6.9615 0.2174 11.271-3.1428 11.438-9.5312l-1.8438-163.41c0.16684-6.3884-3.8031-10.667-11.219-12.844l-131.88-35.844c-0.87019-0.0272-1.6699-0.0517-2.375-0.0312zm4.3438 11.344 126.97 34.5h0.0312c2.3958 0.70859 3.3971 1.5596 3.5938 1.7812s0.18192-0.1705 0.15625 0.8125a10.394 10.394 0 0 0 -0.0312 0.40625l1.8438 162.19-123.81-41.875c-2.8334-1.8374-4.0884-4.4981-4.0312-6.6875a10.394 10.394 0 0 0 0 -0.59375l-4.7188-150.53z" fill="#fff" fill-rule="evenodd" stroke="url(#ah)"/>
  <path d="m356.76 777.22 97.527 29.675c7.4156 1.9906 12.407 6.4278 12.24 12.271l-0.19143 33.718c-0.16684 5.8432-2.4569 4.7787-9.4184 4.5799l-98.609-32.152c-6.3679-3.2948-9.9331-10.134-9.7662-15.977l-0.31862-25.508c0.16684-5.8432 1.5751-6.805 8.5367-6.6062z" fill="none" stroke="url(#ag)" stroke-width="2"/>
  <path transform="translate(-16.971 -107.48)" d="m637.53 930-58.719 96.594c-19.091-2.0661-34.059 2.1277-45.438 13.156l-198-69.219c6.4538-10.6-5.8501-21.518-10.219-32l-8.8438 30.75c10.709 7.7189 10.553 19.77 10.969 30.062l213.16 72.219c12.661-11.111 35.543-14.596 45.562-12.5l64.656-106.59c-9.4446-6.9119-12.208-12.265-13.125-22.469z" stroke="#000"/>
  <path d="m483.05-64.26c25.843 10.062 49.145 24.02 55.053 64.65-9.8814-29.314-29.017-50.144-55.053-64.65" fill="#fff"/>
  <path d="m467.9-67.796c47.792 0.35263 77.545 50.82 75.256 94.449-0.0507-38.202-45.965-85.867-74.751-95.459" fill="#fff" filter="url(#bz)"/>
  <path d="m483.05-64.26c25.843 10.062 49.145 24.02 55.053 64.65-9.8814-29.314-29.017-50.144-55.053-64.65" fill="#fff" filter="url(#ca)"/>
  <path d="m542.12 38.775c4.985 33.991-4.8732 57.413-24.868 78.757 19.793-31.1 22.984-32.109 24.868-78.757z" fill="#fff"/>
  <path transform="matrix(1 0 -.8661 1 139.4 -107.48)" d="m529.4 146.26c34.425 33.991 44.853 57.413 43.343 78.757-7.1423-31.1-4.8252-32.109-43.343-78.757z" fill="#fff" filter="url(#by)"/>
  <path d="m524.78 40.647c1.8583 62.25-39.307 102.91-84.378 101.14-53.629-2.0863-81.71-49.978-81.71-101.14s32.722-97.522 80.442-97.912c47.351-0.38738 86.608 39.221 85.645 97.912z" fill="none" filter="url(#bx)" stroke="#000"/>
  <path d="m407.67 147.74c51.881 24.474 98.519 11.048 126.07-16.071-38.628 26.165-98.127 28.769-126.07 16.071" fill="#2b0000" filter="url(#bw)" stroke="#000"/>
  <path d="m426.99 158.01-0.25255 11.27c14.956 10.872 44.677 7.3248 69.448 1.0229l-0.25254-12.836c-23.747 2.4337-26.311 7.7878-68.69 0.54336" fill="#2b0000" filter="url(#bv)"/>
  <path d="m444.16 166.05c7.1881 1.4383 12.775 0.47471 18.688 0l4.5457 19.698c-8.3233 0.95729-16.628 1.9708-26.264-1.0102l3.0305-18.688z" fill="url(#bn)" filter="url(#bu)"/>
  <path d="m299.46 222.12c-17.899 3.338-27.881 7.0358-1.7678 12.374l1.7678-12.374" fill="url(#bk)"/>
  <path d="m297.69 234.49c62.203-43.039 151.68-26.83 207.33 23.234-69.111-4.7382-138.22-15.48-207.33-23.234z" fill="none" filter="url(#o)" stroke="#fd8585" stroke-width="3"/>
  <path transform="matrix(.92902 0 0 .85089 10.198 -52.569)" d="m314.66 341.97c62.203-43.039 151.68-26.83 207.33 23.234-69.111-4.7382-138.22-15.48-207.33-23.234z" fill="none" filter="url(#o)" stroke="#fff" stroke-width="3.3742"/>
  <path d="m435.83 221.87c27.35 7.0141 47.769 19.117 63.135 35.355-17.646-14.854-38.871-26.398-63.135-35.355z" fill="#fff"/>
  <path transform="matrix(1.519 0 0 1.7164 -354.52 -481.14)" d="m666.96 528.08a8.75 8.2143 0 1 1 -17.5 0 8.75 8.2143 0 1 1 17.5 0z" fill="#fff" fill-rule="evenodd" filter="url(#n)"/>
  <path transform="matrix(1.1712 0 0 .99038 -125.66 -105.33)" d="m666.96 528.08a8.75 8.2143 0 1 1 -17.5 0 8.75 8.2143 0 1 1 17.5 0z" fill="#fff" fill-rule="evenodd"/>
  <path transform="matrix(.81438 0 0 .81438 177.62 25.591)" d="m666.96 528.08a8.75 8.2143 0 1 1 -17.5 0 8.75 8.2143 0 1 1 17.5 0z" fill="#fff" fill-rule="evenodd" filter="url(#n)"/>
  <path d="m526.64 290.64c15.77 1.1549 33.349-1.4169 39.96-4.0728l-4.8304 632.48c-15.978-4.4632-30.156 2.3928-45.801 12.897l10.797-641.18" fill="url(#az)"/>
  <path d="m285.26 262.2 241.46 28.48c-1.2046 9.1419-1.0963 16.952-1.4105 24.925-70.015 4.2119-168.29-9.5126-238.43-17.194-0.1298-5.6338-0.9927-32.363-1.6238-36.21z" fill="url(#at)"/>
  <path d="m308.21 830.15c4.9828 13.579 11.274 17.457 12.826 26.907l-22.473-593.17c-5.6373-1.6771-8.7961-3.6964-17.139-2.2168l26.786 568.48z" fill="url(#as)"/>
  <g transform="translate(-16.971 -107.48)">
   <path d="m297.2 330.28c-6.633 4.2426-7.7015 16.832-6.281 33.155 4.0771 6.3247 13.017 6.9642 19.698 8.0812l212.64 24.244c23.065 3.4858 46.13 4.0159 69.195-4.5457 24.749-15.321 46.522-27.666 74.246-45.962 2.8041-8.7547 2.1982-17.509 1.0102-26.264-5.3114-0.71784-13.639-1.9342-17.809-1.7934-0.96148 0.0325-5.518-0.14379-2.765 0.58903 1.7067 0.45432 15.826 4.6487 10.62 6.0593l-68.333 35.046c-15.149 8.7571-47 4.9876-71.721 6.566l-204.56-22.728c-32.819-9.2794-3.6852-10.467 3.283-14.142l-19.225 1.6953z" fill="url(#bm)"/>
   <path d="m297.2 330.28c-6.633 4.2426-1.1355 10.266 1.8003 12.447 4.0771 1.779 6.9561 4.9439 13.637 6.0609l211.12 22.728c23.57 1.4654 45.12 2.5007 68.185-6.0609 24.749-15.321 41.472-20.09 69.195-38.386 2.9304-2.3149 1.4406-4.3773 1.0102-6.1872-5.1852-1.3492-8.2091-2.8181-12.253-3.6875-0.94054-0.2022-5.518-0.14379-2.765 0.58903 1.7067 0.45432 15.826 4.6487 10.62 6.0593l-68.333 35.046c-15.149 8.7571-47 4.9876-71.721 6.566l-204.56-22.728c-32.819-9.2794-3.6852-10.467 3.283-14.142l-19.225 1.6953z" fill="#fff"/>
  </g>
  <path transform="translate(-16.971 -107.48)" d="m635.88 950.41-49.219 80.969a9.1904 9.1904 0 0 1 -8.8438 4.3438c-17.257-1.8677-28.709 1.5895-38.031 10.625a9.1904 9.1904 0 0 1 -9.4375 2.0937l-196.19-68.594c0.11899 0.40479 0.30329 0.81775 0.40625 1.2188 1.0666 4.154 1.4279 7.993 1.625 11.594l202.69 68.656c7.153-4.9395 15.349-8.0612 23.25-9.9063 6.8374-1.5967 13.232-2.3314 19.031-2.0937l57.719-95.094c-1.1492-1.2135-2.0476-2.5222-3-3.8125zm-308.16 12.469-1 3.5c0.10774 0.11901 0.17575 0.25496 0.28125 0.375a9.1904 9.1904 0 0 1 0.53125 -1c0.5745-0.94356 0.58458-1.169 0.46875-2.1562-0.0173-0.14732-0.24375-0.53996-0.28125-0.71875z" fill="#fff" filter="url(#bq)"/>
  <path d="m644.17 242.32c-3.9548 2.4826 0.22656 28.535-4.427 32.36-18.188 9.6293-51.946 42.39-65.286 50.789-2.3125 1.4559-0.1462-36.47 0.0126-40.722l69.701-42.426" fill="url(#ao)"/>
  <text transform="matrix(.78899 .27006 -.14645 1.2173 0 0)" x="549.08331" y="542.96759" fill="#fff" font-family="ori1Uni" font-size="24.01" font-weight="bold">
   <tspan x="549.08331" y="542.96759">ESTACION</tspan>
  </text>
  <path transform="translate(-16.971 -107.48)" d="m374.15625,888.1875c-2.93809-.0406-4.37799.35152-4.53125.46875-.0808.0618-.13605.0606-.28125.5625-.13876.47962-.26913,1.422-.3125,2.65625v.125l.3125,24.9375a2.79317,2.79317 0 0,1 0,.125c-.12856,4.50178 2.82233,10.2918 7.96875,13.03125l96.21875,31.34375c3.1232.0905 5.3785.17393 5.71875.0937 .0579-.15284.20917-.74091.25-1.84375v-.0625l.1875-33.03125a2.79317,2.79317 0 0,1 0-.0625c.0587-2.05406-.70488-3.72401-2.375-5.34375s-4.30239-3.05413-7.59375-3.9375a2.79317,2.79317 0 0,1 -.0937,0l-95.46875-29.0625z" fill="none" stroke="#fff" stroke-width="2"/>
  <text transform="matrix(.98006 .26002 0 1.0203 0 0)" x="351.17374" y="640.86694" fill="#fff" font-family="ori1Uni" font-size="55.288" font-weight="bold" stroke="url(#i)" stroke-linecap="square" stroke-linejoin="round" stroke-width="2">
   <tspan x="351.17374" y="640.86694" stroke="url(#i)" stroke-width="2">GAS</tspan>
  </text>
  <path d="m554.78 294.34c-4.3471 0.86445-8.2291 2.0778-15.152 1.0102l-0.75761 622.25c6.1078-2.5447 11.456-2.0522 16.92-2.0203l-1.0102-621.24" fill="url(#ae)"/>
  <path transform="translate(-16.971 -107.48)" d="m635.94 951.81-48.594 79.969a9.9898 9.9898 0 0 1 -9.5938 4.75c-17.098-1.8504-28.294 1.5442-37.438 10.406a9.9898 9.9898 0 0 1 -10.219 2.25l-194.72-68.062c0.98142 3.9151 1.3579 7.5388 1.5625 10.938l201.78 68.375c7.1904-4.8924 15.357-7.9765 23.219-9.8125 6.7283-1.5713 13.008-2.3121 18.781-2.125l57.125-94.156c-0.73562-0.80382-1.2518-1.6933-1.9062-2.5312z" fill="#fff"/>
  <text transform="rotate(2.5546)" x="399.70282" y="486.15686" fill="#fff" font-family="ori1Uni" font-size="9" font-weight="bold">
   <tspan x="399.70282" y="486.15686">8</tspan>
  </text>
  <text transform="rotate(5.4249)" x="441.10516" y="466.94141" fill="#fff" font-family="ori1Uni" font-size="9" font-weight="bold">
   <tspan x="441.10516" y="466.94141">1</tspan>
  </text>
  <text transform="rotate(4.3694)" x="451.9108" y="476.57477" fill="#fff" font-family="ori1Uni" font-size="9" font-weight="bold">
   <tspan x="451.9108" y="476.57477">1</tspan>
  </text>
  <path transform="matrix(1.117 0 0 1.1092 -79.837 -168.69)" d="m450.25 465.64a24.042 24.042 0 1 1 -48.083 0 24.042 24.042 0 1 1 48.083 0z" fill="none" stroke="url(#ab)" stroke-width="2.6952"/>
  <path transform="matrix(1.0624 0 0 1.0624 -57.881 -148.02)" d="m450.25 465.64a24.042 24.042 0 1 1 -48.083 0 24.042 24.042 0 1 1 48.083 0z" fill="none" stroke="url(#h)" stroke-width="2.8238"/>
  <path transform="translate(-31.289 -118.97)" d="m450.25 465.64a24.042 24.042 0 1 1 -48.083 0 24.042 24.042 0 1 1 48.083 0z" fill="#fff" fill-rule="evenodd" stroke="url(#h)" stroke-width="3"/>
  <path transform="matrix(.71666 -.69742 .69742 .71666 -203.31 312.9)" d="m415.96 459.1-6.6116-7.9448 1.1944 10.267-4.1055-9.4857-1.7464 10.187-1.2667-10.258-4.5458 9.2827 1.6746-10.199-6.9769 7.626 4.4803-9.3145-8.8428 5.3514 6.923-7.675-9.9923 2.6434 8.8049-5.4136-10.332-0.27886 9.9734-2.7137-9.8352-3.1785 10.334 0.20603-8.5413-5.8206 9.8573 3.1091-6.5554-7.9912 8.5821 5.7603-4.0385-9.5144 6.6116 7.9448-1.1944-10.267 4.1055 9.4857 1.7464-10.187 1.2667 10.258 4.5458-9.2827-1.6746 10.199 6.9769-7.626-4.4803 9.3145 8.8428-5.3514-6.923 7.675 9.9923-2.6434-8.8049 5.4136 10.332 0.27886-9.9734 2.7137 9.8352 3.1785-10.334-0.20603 8.5413 5.8206-9.8573-3.1091 6.5554 7.9912-8.5821-5.7603 4.0385 9.5144z" fill="#fff" fill-rule="evenodd" stroke="url(#q)" stroke-width="2"/>
  <path transform="matrix(.37206 -.36203 .36207 .37202 84.343 329.14)" d="m415.96 459.1-6.6116-7.9448 1.1944 10.267-4.1055-9.4857-1.7464 10.187-1.2667-10.258-4.5458 9.2827 1.6746-10.199-6.9769 7.626 4.4803-9.3145-8.8428 5.3514 6.923-7.675-9.9923 2.6434 8.8049-5.4136-10.332-0.27886 9.9734-2.7137-9.8352-3.1785 10.334 0.20603-8.5413-5.8206 9.8573 3.1091-6.5554-7.9912 8.5821 5.7603-4.0385-9.5144 6.6116 7.9448-1.1944-10.267 4.1055 9.4857 1.7464-10.187 1.2667 10.258 4.5458-9.2827-1.6746 10.199 6.9769-7.626-4.4803 9.3145 8.8428-5.3514-6.923 7.675 9.9923-2.6434-8.8049 5.4136 10.332 0.27886-9.9734 2.7137 9.8352 3.1785-10.334-0.20603 8.5413 5.8206-9.8573-3.1091 6.5554 7.9912-8.5821-5.7603 4.0385 9.5144z" fill="#fff" fill-rule="evenodd" stroke="url(#p)" stroke-width="1.9263"/>
 </g>
</svg>
